<?xml version="1.0" encoding="utf-8"?>
<!-- Generator: Adobe Illustrator 22.0.0, SVG Export Plug-In . SVG Version: 6.00 Build 0)  -->
<svg version="1.1" id="Capa_1" xmlns="http://www.w3.org/2000/svg" xmlns:xlink="http://www.w3.org/1999/xlink" x="0px" y="0px"
	 viewBox="0 0 16 16" style="enable-background:new 0 0 16 16;" xml:space="preserve">
<style type="text/css">
	.st0{opacity:0.7;fill:#A7A8A8;}
	.st1{fill:#FFFFFF;}
</style>
<ellipse class="st0" cx="8" cy="7.9" rx="7.8" ry="7.8"/>
<path class="st1" d="M7.2,6.5c0,0.7-0.4,1.2-1,1.4C7,8.1,7.4,8.8,7.4,9.5c0,1.3-1.2,1.7-2.3,1.7c-0.9,0-1.7,0-2.6,0V4.8
	c0.9,0,1.7,0,2.6,0C6.2,4.8,7.2,5.3,7.2,6.5z M3,7.7h2.2c0.8,0,1.6-0.2,1.6-1.2c0-0.9-0.8-1.3-1.6-1.3H3V7.7z M3,10.7h2.1
	c0.8,0,1.8-0.2,1.8-1.2c0-1-0.9-1.4-1.8-1.4c-0.8,0-1.4,0-2.2,0V10.7z"/>
<path class="st1" d="M13.2,11.2V8.3H9.1v2.9H8.6V4.8h0.5v3.1h4.1V4.8h0.5v6.4H13.2z"/>
</svg>
