<?xml version="1.0" standalone="no"?>
<!DOCTYPE svg PUBLIC "-//W3C//DTD SVG 20010904//EN"
 "http://www.w3.org/TR/2001/REC-SVG-20010904/DTD/svg10.dtd">
<svg version="1.0" xmlns="http://www.w3.org/2000/svg"
 width="700.000000pt" height="700.000000pt" viewBox="0 0 700.000000 700.000000"
 preserveAspectRatio="xMidYMid meet">
<metadata>
Created by potrace 1.11, written by Peter Selinger 2001-2013
</metadata>
<g transform="translate(0.000000,700.000000) scale(0.100000,-0.100000)"
fill="#000000" stroke="none">
<path d="M3290 6949 c-41 -4 -106 -9 -145 -12 -38 -3 -86 -8 -105 -11 -83 -14
-97 -17 -130 -21 -19 -3 -55 -10 -80 -16 -25 -5 -55 -12 -67 -14 -57 -12 -103
-22 -133 -30 -97 -25 -360 -113 -375 -126 -5 -5 -15 -9 -22 -9 -8 0 -33 -9
-55 -20 -23 -11 -48 -20 -55 -20 -7 0 -13 -4 -13 -10 0 -5 -7 -10 -16 -10 -22
0 -282 -135 -295 -153 -3 -5 -10 -9 -15 -9 -9 0 -95 -48 -104 -58 -3 -3 -17
-11 -32 -19 -15 -8 -36 -21 -46 -30 -10 -9 -25 -20 -34 -26 -98 -63 -272 -201
-363 -287 -207 -196 -304 -303 -447 -494 -131 -177 -296 -452 -280 -469 4 -5
2 -6 -3 -2 -6 3 -21 -15 -33 -41 -80 -173 -136 -309 -130 -315 1 -2 -2 -10 -8
-18 -14 -17 -59 -150 -56 -163 2 -4 -2 -13 -7 -20 -9 -10 -39 -121 -75 -276
-16 -68 -32 -157 -41 -225 -2 -22 -7 -49 -9 -61 -2 -12 -7 -57 -11 -100 -3
-43 -9 -86 -11 -96 -3 -9 0 -20 7 -23 8 -6 8 -9 0 -14 -11 -7 -15 -326 -6
-436 14 -159 34 -312 51 -399 2 -11 7 -34 10 -51 20 -116 94 -375 106 -375 5
0 6 -5 3 -11 -4 -5 -2 -22 4 -37 5 -15 31 -81 56 -147 56 -143 198 -433 228
-466 12 -13 21 -26 20 -29 -3 -10 59 -110 68 -110 6 0 8 -4 4 -9 -3 -6 3 -14
12 -20 10 -6 15 -11 11 -11 -13 0 120 -182 227 -309 90 -107 211 -231 226
-231 7 0 10 -3 6 -6 -5 -6 45 -57 123 -124 22 -19 60 -52 83 -72 23 -21 45
-38 49 -38 4 0 17 -10 30 -22 13 -13 43 -36 68 -53 25 -16 51 -35 57 -42 52
-48 466 -286 523 -300 14 -3 27 -9 30 -12 5 -6 92 -45 135 -61 11 -4 31 -12
45 -18 42 -17 113 -43 155 -57 83 -26 181 -55 200 -58 11 -2 27 -6 35 -10 52
-19 257 -58 380 -72 30 -4 57 -8 60 -10 28 -17 532 -25 685 -11 50 5 100 9
113 9 12 1 22 3 22 6 0 4 17 6 38 7 50 1 112 10 223 35 52 11 105 22 119 25
90 18 369 108 470 152 19 9 37 16 40 16 16 2 167 71 175 80 6 6 17 12 25 14
14 3 173 88 250 134 19 11 38 25 42 32 4 6 8 7 8 3 0 -9 93 52 98 65 2 4 8 8
12 8 26 0 242 169 234 182 -4 7 -2 8 5 4 24 -15 322 274 484 469 48 59 189
250 195 265 3 8 8 17 12 20 10 8 37 54 38 64 0 5 5 12 10 15 29 19 207 365
196 383 -4 6 -3 8 3 5 6 -4 26 32 48 86 21 50 43 106 50 122 7 17 20 55 30 85
9 30 20 64 25 75 17 40 67 226 86 320 10 47 34 183 40 220 3 22 8 42 10 44 2
2 -1 13 -7 24 -8 14 -8 18 0 13 7 -5 11 3 12 21 1 15 2 42 4 58 14 125 20 473
11 550 -2 17 -7 70 -11 119 -4 50 -9 99 -11 110 -3 12 -7 39 -9 61 -3 22 -7
51 -10 65 -2 14 -7 39 -10 55 -6 36 -8 45 -34 160 -11 50 -29 118 -39 152 -11
34 -17 65 -14 68 3 3 -1 5 -8 5 -7 0 -11 3 -7 6 9 9 -67 221 -133 369 -66 149
-168 340 -231 433 -16 24 -29 45 -29 47 0 13 -113 160 -122 157 -5 -1 -7 1 -4
6 5 9 -48 90 -68 104 -6 4 -14 4 -20 1 -5 -3 -6 -1 -2 6 8 13 -9 36 -100 138
-114 126 -315 319 -378 363 -11 8 -30 23 -41 33 -11 10 -40 33 -65 50 -25 17
-47 33 -50 36 -17 20 -79 59 -84 54 -3 -4 -6 -2 -6 4 0 5 -35 31 -77 58 -43
26 -89 55 -103 64 -110 69 -355 188 -525 254 -140 54 -224 79 -241 73 -8 -3
-12 -2 -9 4 3 6 3 10 -2 11 -9 1 -27 5 -58 13 -57 16 -143 37 -170 41 -16 3
-46 10 -65 15 -19 4 -53 11 -75 14 -22 3 -61 9 -87 14 -32 6 -51 6 -59 -2 -9
-8 -10 -8 -5 2 5 8 -1 12 -21 13 -15 0 -37 2 -48 4 -79 16 -459 24 -585 14z
m520 -573 c0 -2 -8 -10 -17 -17 -16 -13 -17 -12 -4 4 13 16 21 21 21 13z m-9
-103 c13 -16 12 -17 -3 -4 -10 7 -18 15 -18 17 0 8 8 3 21 -13z m-2080 -160
c13 -16 12 -17 -3 -4 -10 7 -18 15 -18 17 0 8 8 3 21 -13z m3619 -147 c0 -2
-8 -10 -17 -17 -16 -13 -17 -12 -4 4 13 16 21 21 21 13z m-3730 -190 c0 -2 -8
-10 -17 -17 -16 -13 -17 -12 -4 4 13 16 21 21 21 13z m81 -13 c13 -16 12 -17
-3 -4 -10 7 -18 15 -18 17 0 8 8 3 21 -13z m3160 -600 c13 -16 12 -17 -3 -4
-10 7 -18 15 -18 17 0 8 8 3 21 -13z m-721 -147 c0 -2 -8 -10 -17 -17 -16 -13
-17 -12 -4 4 13 16 21 21 21 13z m-489 -183 c13 -16 12 -17 -3 -4 -17 13 -22
21 -14 21 2 0 10 -8 17 -17z m2819 13 c0 -2 -8 -10 -17 -17 -16 -13 -17 -12
-4 4 13 16 21 21 21 13z m-6040 -120 c0 -2 -8 -10 -17 -17 -16 -13 -17 -12 -4
4 13 16 21 21 21 13z m6031 -43 c13 -16 12 -17 -3 -4 -10 7 -18 15 -18 17 0 8
8 3 21 -13z m9 -77 c0 -2 -8 -10 -17 -17 -16 -13 -17 -12 -4 4 13 16 21 21 21
13z m-1539 -253 c13 -16 12 -17 -3 -4 -17 13 -22 21 -14 21 2 0 10 -8 17 -17z
m-1280 -160 c13 -16 12 -17 -3 -4 -17 13 -22 21 -14 21 2 0 10 -8 17 -17z
m769 -177 c0 -2 -8 -10 -17 -17 -16 -13 -17 -12 -4 4 13 16 21 21 21 13z m71
-103 c13 -16 12 -17 -3 -4 -17 13 -22 21 -14 21 2 0 10 -8 17 -17z m1924 -481
c-3 -3 -11 0 -18 7 -9 10 -8 11 6 5 10 -3 15 -9 12 -12z m46 -349 c13 -16 12
-17 -3 -4 -10 7 -18 15 -18 17 0 8 8 3 21 -13z m-1530 -10 c13 -16 12 -17 -3
-4 -17 13 -22 21 -14 21 2 0 10 -8 17 -17z m-511 -337 c0 -2 -8 -10 -17 -17
-16 -13 -17 -12 -4 4 13 16 21 21 21 13z m71 -103 c13 -16 12 -17 -3 -4 -17
13 -22 21 -14 21 2 0 10 -8 17 -17z m-3560 -120 c13 -16 12 -17 -3 -4 -10 7
-18 15 -18 17 0 8 8 3 21 -13z m2720 -240 c13 -16 12 -17 -3 -4 -17 13 -22 21
-14 21 2 0 10 -8 17 -17z m-76 -382 c3 -5 2 -12 -3 -15 -5 -3 -9 1 -9 9 0 17
3 19 12 6z m-114 -288 c13 -16 12 -17 -3 -4 -17 13 -22 21 -14 21 2 0 10 -8
17 -17z m-2201 -107 c0 -2 -8 -10 -17 -17 -16 -13 -17 -12 -4 4 13 16 21 21
21 13z m441 -53 c13 -16 12 -17 -3 -4 -10 7 -18 15 -18 17 0 8 8 3 21 -13z
m-450 -50 c13 -16 12 -17 -3 -4 -17 13 -22 21 -14 21 2 0 10 -8 17 -17z m2650
-150 c13 -16 12 -17 -3 -4 -17 13 -22 21 -14 21 2 0 10 -8 17 -17z m-2751 -37
c0 -2 -8 -10 -17 -17 -16 -13 -17 -12 -4 4 13 16 21 21 21 13z m2760 -40 c0
-2 -8 -10 -17 -17 -16 -13 -17 -12 -4 4 13 16 21 21 21 13z m-1400 -120 c0 -2
-8 -10 -17 -17 -16 -13 -17 -12 -4 4 13 16 21 21 21 13z m-819 -173 c13 -16
12 -17 -3 -4 -17 13 -22 21 -14 21 2 0 10 -8 17 -17z m99 13 c0 -2 -8 -10 -17
-17 -16 -13 -17 -12 -4 4 13 16 21 21 21 13z"/>
</g>
</svg>
