<svg xmlns="http://www.w3.org/2000/svg" viewBox="0 0 158 68.1"><title>Asset 7</title><g id="Layer_2" data-name="Layer 2"><g id="Layer_1-2" data-name="Layer 1"><path d="M54.2,35.6h3V45.7a20.3,20.3,0,0,0,.4,5.1A5.7,5.7,0,0,0,60,54a7.7,7.7,0,0,0,4.3,1.2A7.5,7.5,0,0,0,68.4,54a5.8,5.8,0,0,0,2.4-3,20,20,0,0,0,.4-5.3V35.6h3V46.2A16,16,0,0,1,73.2,53a8.2,8.2,0,0,1-3.3,3.6,11,11,0,0,1-5.6,1.3,11.2,11.2,0,0,1-5.6-1.3A8.1,8.1,0,0,1,55.3,53,16.7,16.7,0,0,1,54.2,46Z" style="fill:#fff"/><path d="M100.2,50.1l2.5,1.2A12.9,12.9,0,0,1,99.9,55a11.4,11.4,0,0,1-3.6,2.1,13.3,13.3,0,0,1-4.5.7q-5.6,0-8.8-3.5a11.4,11.4,0,0,1-3.2-7.9A11.5,11.5,0,0,1,91.5,35a11.6,11.6,0,0,1,9.4,4.2,11.4,11.4,0,0,1,2.5,7.4H82.8a8.6,8.6,0,0,0,2.6,6.2,8.4,8.4,0,0,0,6.1,2.4,10.3,10.3,0,0,0,3.4-.6,9.2,9.2,0,0,0,2.8-1.5A13.3,13.3,0,0,0,100.2,50.1Zm0-5.9a9.1,9.1,0,0,0-1.7-3.6,8.1,8.1,0,0,0-3-2.2,9.6,9.6,0,0,0-3.9-.8,8.7,8.7,0,0,0-5.8,2.1,9.2,9.2,0,0,0-2.7,4.5Z" style="fill:#fff"/><path d="M107.9,35.6h3v3.2a10.3,10.3,0,0,1,2.9-2.8,5.9,5.9,0,0,1,3.1-.9,5.6,5.6,0,0,1,2.6.7l-1.5,2.4a4.3,4.3,0,0,0-1.6-.4,4.4,4.4,0,0,0-2.9,1.1,7.2,7.2,0,0,0-2.1,3.6,32.3,32.3,0,0,0-.6,7.5v7.3h-3Z" style="fill:#fff"/><path d="M123,26.6a2.4,2.4,0,0,1,1.7.7,2.2,2.2,0,0,1,.7,1.6,2.2,2.2,0,0,1-.7,1.6,2.4,2.4,0,0,1-1.7.7,2.4,2.4,0,0,1-1.7-.7,2.2,2.2,0,0,1-.7-1.6,2.2,2.2,0,0,1,.7-1.6A2.4,2.4,0,0,1,123,26.6Z" style="fill:#f38b00"/><path d="M155.5,53.4a2.4,2.4,0,0,1,1.7.7,2.2,2.2,0,0,1,.7,1.6,2.2,2.2,0,0,1-.7,1.6,2.5,2.5,0,0,1-3.4,0,2.2,2.2,0,0,1-.7-1.6,2.2,2.2,0,0,1,.7-1.6A2.4,2.4,0,0,1,155.5,53.4Z" style="fill:#f38b00"/><rect x="121.5" y="35.6" width="3" height="21.72" style="fill:#fff"/><path d="M130.6,35.6h3v3.9a12.2,12.2,0,0,1,3.9-3.3,10.1,10.1,0,0,1,4.7-1.1,8.5,8.5,0,0,1,4.6,1.2,7.5,7.5,0,0,1,2.9,3.3,16.8,16.8,0,0,1,.9,6.5V57.3h-3V46.9a24.2,24.2,0,0,0-.3-5,5.4,5.4,0,0,0-2-3.2,6.2,6.2,0,0,0-3.8-1.1,7.6,7.6,0,0,0-4.8,1.7,7.8,7.8,0,0,0-2.8,4.2,27.2,27.2,0,0,0-.4,5.9v8h-3Z" style="fill:#fff"/><path d="M0,30.1V0H3V12.1A12.3,12.3,0,0,1,7.1,8.9a11.8,11.8,0,0,1,5-1.1,11.5,11.5,0,0,1,8.3,3.3,10.9,10.9,0,0,1,3.5,8.1,10.7,10.7,0,0,1-3.5,8,11.7,11.7,0,0,1-8.4,3.3A11.2,11.2,0,0,1,7,29.5a11.7,11.7,0,0,1-4-3.4v4ZM11.8,28a9.3,9.3,0,0,0,4.6-1.2,8.6,8.6,0,0,0,3.3-3.2,8.4,8.4,0,0,0,1.2-4.4,8.6,8.6,0,0,0-1.2-4.4,8.8,8.8,0,0,0-3.3-3.3,9,9,0,0,0-4.5-1.2,9.6,9.6,0,0,0-4.6,1.2,8.4,8.4,0,0,0-3.4,3.1,8.6,8.6,0,0,0-1.2,4.5,8.4,8.4,0,0,0,2.6,6.3A8.9,8.9,0,0,0,11.8,28Z" style="fill:#fff"/><path d="M31.1,11.6a10.3,10.3,0,0,1,2.9-2.8,5.9,5.9,0,0,1,3.1-.9,5.6,5.6,0,0,1,2.6.7l-1.5,2.4a4.3,4.3,0,0,0-1.6-.4,4.4,4.4,0,0,0-2.9,1.1,7.2,7.2,0,0,0-2.1,3.6,32.6,32.6,0,0,0-.5,7.5Z" style="fill:#fff"/><path d="M65.2,8.4V30.1H62.3V26.4a12.6,12.6,0,0,1-4.2,3.2,11.8,11.8,0,0,1-5.1,1.1,11.5,11.5,0,0,1-8.3-3.3,10.9,10.9,0,0,1-3.5-8.1,10.7,10.7,0,0,1,3.5-8,11.7,11.7,0,0,1,8.4-3.3A11.3,11.3,0,0,1,58.3,9a11.4,11.4,0,0,1,4,3.4v-4ZM53.4,10.5a9.3,9.3,0,0,0-4.6,1.1,8.6,8.6,0,0,0-3.3,3.2,8.4,8.4,0,0,0,0,8.8,8.8,8.8,0,0,0,3.3,3.3,9.1,9.1,0,0,0,4.5,1.2A9.7,9.7,0,0,0,58,26.9a8.3,8.3,0,0,0,3.3-3.1,8.6,8.6,0,0,0,1.2-4.4,8.4,8.4,0,0,0-2.6-6.3A9,9,0,0,0,53.4,10.5Z" style="fill:#fff"/><path d="M71.5,8.4h3V18.5a20.5,20.5,0,0,0,.4,5.1,5.7,5.7,0,0,0,2.4,3.2A7.7,7.7,0,0,0,81.6,28a7.5,7.5,0,0,0,4.2-1.1,5.8,5.8,0,0,0,2.4-3,19.6,19.6,0,0,0,.4-5.3V8.4h3V19a16,16,0,0,1-1.1,6.8,8.2,8.2,0,0,1-3.3,3.6,11,11,0,0,1-5.6,1.3A11.2,11.2,0,0,1,76,29.4a8.1,8.1,0,0,1-3.4-3.6,16.7,16.7,0,0,1-1.1-6.9Z" style="fill:#fff"/><path d="M98.2,8.4h3v3.9a12.1,12.1,0,0,1,3.9-3.3,10.1,10.1,0,0,1,4.7-1.1,8.5,8.5,0,0,1,4.6,1.2,7.5,7.5,0,0,1,2.9,3.3,16.7,16.7,0,0,1,.9,6.5V30.1h-3V19.7a24.2,24.2,0,0,0-.3-5,5.4,5.4,0,0,0-2-3.2,6.2,6.2,0,0,0-3.8-1.1,7.6,7.6,0,0,0-4.8,1.7,7.8,7.8,0,0,0-2.8,4.2,26.9,26.9,0,0,0-.4,5.9v8h-3Z" style="fill:#fff"/><text transform="translate(27.7 65.8) scale(1.06 1)" style="font-size:7.616189956665039px;fill:#f38b00;font-family:CenturyGothic, Century Gothic;letter-spacing:0.20000016347537142em">CONTADORES PÚBLICOS</text><path d="M47.3,39.6a7.5,7.5,0,0,0-2.9-3.3A8.5,8.5,0,0,0,39.8,35a10.1,10.1,0,0,0-4.7,1.1,12.4,12.4,0,0,0-3.9,3.3V27.8h-3V57.3h3v-8a27.3,27.3,0,0,1,.4-5.9,7.8,7.8,0,0,1,2.8-4.2,7.6,7.6,0,0,1,4.8-1.7A6.1,6.1,0,0,1,43,38.7a5.6,5.6,0,0,1,2,3.2,25.1,25.1,0,0,1,.3,5V57.3h3V46.1A16.8,16.8,0,0,0,47.3,39.6Z" style="fill:#fff"/><rect x="28.2" y="8.3" width="3" height="18.55" style="fill:#fff"/></g></g></svg>